<svg width="22" height="20" viewBox="0 0 22 20" fill="none" xmlns="http://www.w3.org/2000/svg">
<path d="M20.9919 4.35339C20.6661 3.59144 20.1963 2.90097 19.6088 2.32064C19.0208 1.73857 18.3276 1.276 17.5669 0.958102C16.778 0.627149 15.9319 0.457748 15.0777 0.459734C13.8793 0.459734 12.7101 0.791161 11.694 1.41719C11.4509 1.56695 11.22 1.73143 11.0012 1.91065C10.7824 1.73143 10.5515 1.56695 10.3084 1.41719C9.29233 0.791161 8.12309 0.459734 6.92469 0.459734C6.06175 0.459734 5.22554 0.626675 4.43552 0.958102C3.67224 1.27725 2.98431 1.73634 2.39362 2.32064C1.80535 2.90032 1.33542 3.59095 1.01048 4.35339C0.672589 5.14636 0.5 5.98843 0.5 6.85505C0.5 7.67257 0.665297 8.52446 0.993459 9.39108C1.26814 10.1153 1.66194 10.8665 2.16512 11.6251C2.96243 12.8256 4.05874 14.0777 5.42001 15.347C7.67582 17.4509 9.90976 18.9043 10.0046 18.9632L10.5807 19.3364C10.8359 19.5008 11.1641 19.5008 11.4193 19.3364L11.9954 18.9632C12.0902 18.9018 14.3217 17.4509 16.58 15.347C17.9412 14.0777 19.0375 12.8256 19.8349 11.6251C20.338 10.8665 20.7343 10.1153 21.0065 9.39108C21.3347 8.52446 21.5 7.67257 21.5 6.85505C21.5024 5.98843 21.3298 5.14636 20.9919 4.35339Z" fill="white"/>
</svg>
